HIERARCHY
ROOT hips
{
	OFFSET 0.000000 104.274902 0.000000
	CHANNELS 6 Xposition Yposition Zposition Xrotation Yrotation Zrotation
	JOINT spine
	{
		OFFSET 0.000000 10.181549 0.131524
		CHANNELS 6 Xposition Yposition Zposition Xrotation Yrotation Zrotation
		JOINT chest
		{
			OFFSET 0.000000 9.893990 -1.470706
			CHANNELS 3 Xrotation Yrotation Zrotation
			JOINT upperChest
			{
				OFFSET 0.000000 9.220787 -1.370637
				CHANNELS 3 Xrotation Yrotation Zrotation
				JOINT neck
				{
					OFFSET 0.000000 16.740372 -2.049022
					CHANNELS 6 Xposition Yposition Zposition Xrotation Yrotation Zrotation
					JOINT head
					{
						OFFSET 0.000000 9.617859 1.684976
						CHANNELS 6 Xposition Yposition Zposition Xrotation Yrotation Zrotation
						JOINT headEnd
						{
							OFFSET 0.000000 22.037384 7.501072
							CHANNELS 6 Xposition Yposition Zposition Xrotation Yrotation Zrotation
							End Site
							{
								OFFSET 0.000000 23.106567 -2.828246
							}
						}
					}
				}
				JOINT rightShoulder
				{
					OFFSET -4.570000 11.014877 -2.160840
					CHANNELS 6 Xposition Yposition Zposition Xrotation Yrotation Zrotation
					JOINT rightUpperArm
					{
						OFFSET -10.592867 -0.524796 -2.232105
						CHANNELS 3 Xrotation Yrotation Zrotation
						JOINT rightLowerArm
						{
							OFFSET -27.841497 0.000000 -0.000002
							CHANNELS 3 Xrotation Yrotation Zrotation
							JOINT rightHand
							{
								OFFSET -28.328812 0.000000 -0.000001
								CHANNELS 3 Xrotation Yrotation Zrotation
								JOINT rightThumbProximal
								{
									OFFSET -2.464798 -1.573990 2.681911
									CHANNELS 6 Xposition Yposition Zposition Xrotation Yrotation Zrotation
									JOINT rightThumbIntermediate
									{
										OFFSET -3.244781 -1.873383 1.873376
										CHANNELS 3 Xrotation Yrotation Zrotation
										JOINT rightThumbDistal
										{
											OFFSET -2.646263 -1.527817 1.527818
											CHANNELS 6 Xposition Yposition Zposition Xrotation Yrotation Zrotation
											JOINT rightHandThumb4
											{
												OFFSET -1.994591 -1.151581 1.151575
												CHANNELS 6 Xposition Yposition Zposition Xrotation Yrotation Zrotation
												End Site
												{
													OFFSET -1.860176 -1.142715 1.365483
												}
											}
										}
									}
								}
								JOINT rightIndexProximal
								{
									OFFSET -9.108299 -0.517883 2.259803
									CHANNELS 6 Xposition Yposition Zposition Xrotation Yrotation Zrotation
									JOINT rightIndexIntermediate
									{
										OFFSET -3.699997 0.000000 0.000000
										CHANNELS 3 Xrotation Yrotation Zrotation
										JOINT rightIndexDistal
										{
											OFFSET -2.850006 0.000000 0.000000
											CHANNELS 3 Xrotation Yrotation Zrotation
											JOINT rightHandIndex4
											{
												OFFSET -2.772194 0.000000 0.000000
												CHANNELS 3 Xrotation Yrotation Zrotation
												End Site
												{
													OFFSET -2.772202 0.000000 -0.000484
												}
											}
										}
									}
								}
								JOINT rightMiddleProximal
								{
									OFFSET -9.532501 0.000000 -0.000000
									CHANNELS 6 Xposition Yposition Zposition Xrotation Yrotation Zrotation
									JOINT rightMiddleIntermediate
									{
										OFFSET -3.699997 0.000000 0.000000
										CHANNELS 3 Xrotation Yrotation Zrotation
										JOINT rightMiddleDistal
										{
											OFFSET -2.949997 0.000000 0.000000
											CHANNELS 3 Xrotation Yrotation Zrotation
											JOINT rightHandMiddle4
											{
												OFFSET -2.946594 0.000000 0.000000
												CHANNELS 3 Xrotation Yrotation Zrotation
												End Site
												{
													OFFSET -2.946602 0.000000 -0.000982
												}
											}
										}
									}
								}
								JOINT rightRingProximal
								{
									OFFSET -9.103600 -0.043106 -1.865100
									CHANNELS 6 Xposition Yposition Zposition Xrotation Yrotation Zrotation
									JOINT rightRingIntermediate
									{
										OFFSET -3.379303 0.000000 0.000000
										CHANNELS 3 Xrotation Yrotation Zrotation
										JOINT rightRingDistal
										{
											OFFSET -2.889694 0.000000 0.000000
											CHANNELS 3 Xrotation Yrotation Zrotation
											JOINT rightHandRing4
											{
												OFFSET -2.638802 0.000000 0.000000
												CHANNELS 3 Xrotation Yrotation Zrotation
												End Site
												{
													OFFSET -2.638802 0.000000 0.004218
												}
											}
										}
									}
								}
								JOINT rightLittleProximal
								{
									OFFSET -8.076698 -0.486725 -3.806299
									CHANNELS 6 Xposition Yposition Zposition Xrotation Yrotation Zrotation
									JOINT rightLittleIntermediate
									{
										OFFSET -3.600006 0.000000 0.000000
										CHANNELS 3 Xrotation Yrotation Zrotation
										JOINT rightLittleDistal
										{
											OFFSET -2.099998 0.000000 0.000000
											CHANNELS 3 Xrotation Yrotation Zrotation
											JOINT rightHandPinky4
											{
												OFFSET -2.115791 0.000000 0.000000
												CHANNELS 3 Xrotation Yrotation Zrotation
												End Site
												{
													OFFSET -2.115799 0.000000 0.000174
												}
											}
										}
									}
								}
							}
						}
					}
				}
				JOINT leftShoulder
				{
					OFFSET 4.570400 11.014679 -2.160816
					CHANNELS 6 Xposition Yposition Zposition Xrotation Yrotation Zrotation
					JOINT leftUpperArm
					{
						OFFSET 10.592373 -0.524597 -2.232116
						CHANNELS 3 Xrotation Yrotation Zrotation
						JOINT leftLowerArm
						{
							OFFSET 27.841488 0.000000 0.000001
							CHANNELS 3 Xrotation Yrotation Zrotation
							JOINT leftHand
							{
								OFFSET 28.328808 0.000000 -0.000000
								CHANNELS 3 Xrotation Yrotation Zrotation
								JOINT leftThumbProximal
								{
									OFFSET 2.466103 -1.576202 2.681698
									CHANNELS 6 Xposition Yposition Zposition Xrotation Yrotation Zrotation
									JOINT leftThumbIntermediate
									{
										OFFSET 3.243317 -1.872528 1.872530
										CHANNELS 3 Xrotation Yrotation Zrotation
										JOINT leftThumbDistal
										{
											OFFSET 2.647881 -1.528763 1.528754
											CHANNELS 6 Xposition Yposition Zposition Xrotation Yrotation Zrotation
											JOINT leftHandThumb4
											{
												OFFSET 1.998924 -1.154083 1.154080
												CHANNELS 6 Xposition Yposition Zposition Xrotation Yrotation Zrotation
												End Site
												{
													OFFSET 1.884041 -1.149155 1.337651
												}
											}
										}
									}
								}
								JOINT leftIndexProximal
								{
									OFFSET 9.109299 -0.518005 2.259900
									CHANNELS 6 Xposition Yposition Zposition Xrotation Yrotation Zrotation
									JOINT leftIndexIntermediate
									{
										OFFSET 3.699997 0.000000 0.000000
										CHANNELS 3 Xrotation Yrotation Zrotation
										JOINT leftIndexDistal
										{
											OFFSET 2.850006 0.000000 0.000000
											CHANNELS 3 Xrotation Yrotation Zrotation
											JOINT leftHandIndex4
											{
												OFFSET 2.774895 0.000000 0.000000
												CHANNELS 3 Xrotation Yrotation Zrotation
												End Site
												{
													OFFSET 2.774902 0.000000 -0.000072
												}
											}
										}
									}
								}
								JOINT leftMiddleProximal
								{
									OFFSET 9.533401 0.000000 0.000000
									CHANNELS 6 Xposition Yposition Zposition Xrotation Yrotation Zrotation
									JOINT leftMiddleIntermediate
									{
										OFFSET 3.699997 0.000000 0.000000
										CHANNELS 3 Xrotation Yrotation Zrotation
										JOINT leftMiddleDistal
										{
											OFFSET 2.949997 0.000000 0.000000
											CHANNELS 3 Xrotation Yrotation Zrotation
											JOINT leftHandMiddle4
											{
												OFFSET 2.952896 0.000000 0.000000
												CHANNELS 3 Xrotation Yrotation Zrotation
												End Site
												{
													OFFSET 2.952904 0.000000 0.000165
												}
											}
										}
									}
								}
								JOINT leftRingProximal
								{
									OFFSET 9.104500 -0.042999 -1.865101
									CHANNELS 6 Xposition Yposition Zposition Xrotation Yrotation Zrotation
									JOINT leftRingIntermediate
									{
										OFFSET 3.149994 0.000000 0.000000
										CHANNELS 3 Xrotation Yrotation Zrotation
										JOINT leftRingDistal
										{
											OFFSET 2.950005 0.000000 0.000000
											CHANNELS 3 Xrotation Yrotation Zrotation
											JOINT leftHandRing4
											{
												OFFSET 2.644302 0.000000 0.000000
												CHANNELS 3 Xrotation Yrotation Zrotation
												End Site
												{
													OFFSET 2.644302 0.000000 0.000083
												}
											}
										}
									}
								}
								JOINT leftLittleProximal
								{
									OFFSET 8.077805 -0.486893 -3.806302
									CHANNELS 6 Xposition Yposition Zposition Xrotation Yrotation Zrotation
									JOINT leftLittleIntermediate
									{
										OFFSET 3.600006 0.000000 0.000000
										CHANNELS 3 Xrotation Yrotation Zrotation
										JOINT leftLittleDistal
										{
											OFFSET 2.099998 0.000000 0.000000
											CHANNELS 3 Xrotation Yrotation Zrotation
											JOINT leftHandPinky4
											{
												OFFSET 2.125496 0.000000 0.000000
												CHANNELS 3 Xrotation Yrotation Zrotation
												End Site
												{
													OFFSET 2.125504 0.000000 -0.001254
												}
											}
										}
									}
								}
							}
						}
					}
				}
			}
		}
	}
	JOINT rightUpperLeg
	{
		OFFSET -8.207800 -6.751701 -1.599544
		CHANNELS 6 Xposition Yposition Zposition Xrotation Yrotation Zrotation
		JOINT rightLowerLeg
		{
			OFFSET 0.000004 -44.370152 0.345934
			CHANNELS 3 Xrotation Yrotation Zrotation
			JOINT rightFoot
			{
				OFFSET 0.000004 -44.423664 -3.043535
				CHANNELS 3 Xrotation Yrotation Zrotation
				JOINT rightToes
				{
					OFFSET 0.000001 -8.728691 10.710592
					CHANNELS 3 Xrotation Yrotation Zrotation
					JOINT rightToesEnd
					{
						OFFSET 0.000000 -0.000665 9.278101
						CHANNELS 3 Xrotation Yrotation Zrotation
						End Site
						{
							OFFSET 0.000000 -0.000665 9.278103
						}
					}
				}
			}
		}
	}
	JOINT leftUpperLeg
	{
		OFFSET 8.207800 -6.751701 -1.599544
		CHANNELS 6 Xposition Yposition Zposition Xrotation Yrotation Zrotation
		JOINT leftLowerLeg
		{
			OFFSET 0.000004 -44.370037 0.346940
			CHANNELS 3 Xrotation Yrotation Zrotation
			JOINT leftFoot
			{
				OFFSET 0.000004 -44.423611 -3.044388
				CHANNELS 3 Xrotation Yrotation Zrotation
				JOINT leftToes
				{
					OFFSET 0.000001 -8.728690 10.710592
					CHANNELS 3 Xrotation Yrotation Zrotation
					JOINT leftToesEnd
					{
						OFFSET 0.000000 -0.000680 9.278101
						CHANNELS 3 Xrotation Yrotation Zrotation
						End Site
						{
							OFFSET 0.000000 -0.000680 9.278101
						}
					}
				}
			}
		}
	}
}
MOTION
Frames: 4
Frame Time: 0.033333
-0.834043 97.340012 1.744393 -3.366613 -6.848174 -6.100087 0.000000 10.181542 0.131524 3.139394 -3.935138 1.348227 4.697815 -0.337073 1.412837 4.743694 -0.353412 1.386652 0.000000 16.740379 -2.049020 -0.657603 3.283674 -0.444184 -0.000001 9.617867 1.684978 -19.594343 18.593387 -5.133336 -0.000002 22.037384 7.501073 -0.000001 -0.000000 0.000001 -4.570000 11.014867 -2.160841 0.666343 5.290490 4.689659 -76.205097 46.160351 61.305039 -0.000002 10.476766 0.000002 30.649904 -0.313628 -2.311860 -2.464806 -1.573971 2.681918 -4.420171 -18.673971 -15.390330 4.637193 -8.634134 -0.225376 -2.646264 -1.527797 1.527820 -1.273762 0.137307 -2.094878 -1.994591 -1.151582 1.151582 -0.000003 -0.000003 0.000003 -9.108302 -0.517866 2.259808 0.055352 -0.877413 7.219485 0.055350 -0.877429 7.219474 0.055349 -0.877426 7.219479 -0.000002 -0.000005 0.000002 -9.532498 0.000010 -0.000000 0.067008 -0.964970 7.944345 0.094431 -1.144394 9.434285 0.100092 -1.177946 9.713641 -0.000001 -0.000002 -0.000001 -9.103601 -0.043066 -1.865096 0.117870 -1.277420 10.543126 0.166024 -1.513402 12.520823 0.175969 -1.557477 12.891674 0.000000 0.000000 0.000001 -8.076698 -0.486710 -3.806298 0.255092 -1.869723 15.537393 0.255104 -1.869694 15.537398 0.255096 -1.869705 15.537389 0.000002 0.000001 -0.000001 4.570397 11.014697 -2.160815 1.295237 -7.585996 9.182377 -29.363202 -23.426183 -36.457644 -0.000015 -62.814811 -0.000014 4.963489 -3.792903 3.937882 2.466096 -1.576218 2.681701 -3.383771 21.303421 12.272316 3.939046 7.948715 0.746801 2.647879 -1.528750 1.528760 -0.579472 1.575019 2.538709 1.998917 -1.154108 1.154077 0.000001 0.000004 0.000003 9.109296 -0.518030 2.259894 0.000116 0.039912 -0.330727 0.000196 0.051829 -0.429444 0.000189 0.051817 -0.429462 -0.000001 -0.000002 0.000001 9.533399 0.000001 -0.000001 0.009887 0.369672 -3.064742 0.015478 0.462366 -3.834099 0.015282 0.459580 -3.811083 0.000003 -0.000001 -0.000001 9.104499 -0.043019 -1.865106 0.044886 0.786655 -6.533046 0.068118 0.968188 -8.049824 0.067819 0.966077 -8.032078 -0.000001 -0.000003 -0.000000 8.077804 -0.486914 -3.806301 0.760352 5.156979 -9.160261 0.127676 -2.702955 -11.783120 0.133588 1.352533 -11.282202 0.000000 -0.000005 0.000001 -8.207800 -6.751709 -1.599544 -16.043855 -8.394258 9.890193 38.442634 3.088201 -5.987286 -17.824379 0.488699 -1.704604 -0.929258 -0.000001 0.000000 -0.000000 -0.000001 -0.000000 8.207799 -6.751709 -1.599546 -18.698336 4.768894 2.150173 42.705823 4.441855 9.619013 -21.515490 1.213811 -5.109898 -0.036479 0.000001 -0.000000 0.000000 0.000000 0.000000 
-0.715482 97.238342 1.684350 -3.425329 -10.038972 -4.222560 0.000000 10.181546 0.131523 4.034456 -1.587720 2.895789 3.493529 -0.165242 -1.052284 3.504881 -0.194071 -1.059978 -0.000000 16.740366 -2.049021 -0.314840 3.577583 -0.865565 0.000000 9.617852 1.684974 -18.994367 19.395895 -4.418465 0.000004 22.037338 7.501081 0.000002 -0.000000 0.000000 -4.570000 11.014894 -2.160841 0.623897 3.848789 2.414379 -86.105026 50.381094 69.437643 -0.000002 9.987907 0.000009 35.176205 0.318106 -2.742505 -2.464794 -1.574003 2.681913 -4.420171 -18.673973 -15.390332 4.637194 -8.634134 -0.225380 -2.646278 -1.527823 1.527818 -1.273763 0.137307 -2.094878 -1.994594 -1.151583 1.151578 0.000001 0.000000 0.000001 -9.108293 -0.517881 2.259800 0.055269 -0.876795 7.214339 0.055358 -0.877428 7.219483 0.055355 -0.877432 7.219478 -0.000001 -0.000002 0.000000 -9.532486 0.000008 -0.000002 0.066954 -0.964609 7.941459 0.094423 -1.144323 9.433739 0.100095 -1.177930 9.713557 -0.000000 0.000000 0.000001 -9.103589 -0.043107 -1.865103 0.117839 -1.277272 10.541847 0.166026 -1.513374 12.520569 0.175967 -1.557453 12.891621 -0.000001 0.000001 -0.000000 -8.076696 -0.486725 -3.806302 0.255095 -1.869713 15.537396 0.255098 -1.869708 15.537389 0.255103 -1.869699 15.537376 -0.000001 -0.000002 -0.000002 4.570398 11.014693 -2.160816 1.091127 -6.316387 9.814529 -31.409503 -14.750847 -30.316242 -0.000014 -64.863711 -0.000017 8.623495 -4.616303 5.122749 2.466104 -1.576183 2.681700 -3.383774 21.303420 12.272317 3.939047 7.948717 0.746804 2.647881 -1.528771 1.528750 -0.579471 1.575018 2.538712 1.998921 -1.154074 1.154076 0.000001 0.000002 0.000001 9.109311 -0.517996 2.259897 0.001881 0.161312 -1.336847 0.002281 0.177485 -1.470644 0.002272 0.177458 -1.470649 -0.000001 0.000000 0.000001 9.533408 0.000014 -0.000002 0.016443 0.476706 -3.953445 0.022461 0.557007 -4.620585 0.022043 0.551744 -4.576873 -0.000000 -0.000001 0.000000 9.104514 -0.042987 -1.865105 0.056327 0.880827 -7.319249 0.075783 1.020959 -8.491808 0.074877 1.014856 -8.440735 -0.000001 0.000000 0.000000 8.077811 -0.486866 -3.806301 0.826799 5.234933 -9.894039 0.130877 -2.687754 -11.912003 0.136652 1.367817 -11.411333 -0.000001 0.000002 0.000001 -8.207798 -6.751716 -1.599541 -17.348764 -6.523900 9.069375 39.825300 2.982433 -7.593822 -18.093718 0.423834 -0.902028 -1.174837 -0.000004 0.000000 0.000000 -0.000000 -0.000000 8.207800 -6.751699 -1.599543 -18.299427 5.437433 1.781644 42.618079 6.208414 6.290792 -21.661868 1.020514 -4.177958 -0.198363 0.000000 0.000002 0.000000 -0.000000 0.000000 
-0.605510 96.812767 1.625870 -2.831364 -13.140535 -2.230160 0.000000 10.181542 0.131524 4.514516 0.434988 3.918070 2.537761 0.047209 -3.241311 2.542024 0.003042 -3.238057 0.000000 16.740358 -2.049020 -0.338466 3.989182 -1.327021 -0.000001 9.617867 1.684977 -18.720387 20.734378 -3.728514 -0.000002 22.037354 7.501074 0.000001 -0.000000 -0.000000 -4.570000 11.014894 -2.160841 0.464010 1.957582 -0.292983 -96.281946 52.885735 76.858602 -0.000017 9.502903 0.000009 38.679570 0.714935 -2.438899 -2.464790 -1.574002 2.681917 -4.420171 -18.673975 -15.390337 4.637195 -8.634133 -0.225380 -2.646282 -1.527781 1.527816 -1.273761 0.137307 -2.094880 -1.994625 -1.151570 1.151577 0.000002 -0.000004 0.000005 -9.108304 -0.517876 2.259806 0.055351 -0.877412 7.219405 0.055273 -0.876799 7.214340 0.055276 -0.876802 7.214363 0.000000 -0.000000 -0.000000 -9.532496 0.000019 0.000001 0.066997 -0.964891 7.943803 0.094373 -1.144033 9.431306 0.100027 -1.177538 9.710217 -0.000000 0.000001 0.000000 -9.103610 -0.043095 -1.865099 0.117840 -1.277271 10.542014 0.165994 -1.513228 12.519341 0.175929 -1.557296 12.890112 -0.000001 0.000000 0.000001 -8.076697 -0.486744 -3.806292 0.255033 -1.869488 15.535463 0.255099 -1.869703 15.537391 0.255096 -1.869719 15.537393 -0.000001 -0.000002 0.000002 4.570399 11.014670 -2.160816 0.815721 -4.759326 10.096227 -35.924029 -7.070291 -25.198583 -0.000052 -65.387341 -0.000076 11.550929 -5.267332 7.244405 2.466104 -1.576234 2.681699 -3.383772 21.303420 12.272317 3.939049 7.948719 0.746800 2.647879 -1.528778 1.528741 -0.579469 1.575018 2.538710 1.998921 -1.154081 1.154081 -0.000005 -0.000002 -0.000002 9.109304 -0.518033 2.259903 0.003353 0.215266 -1.783961 0.004836 0.258801 -2.145025 0.004851 0.258803 -2.145023 -0.000001 -0.000002 0.000001 9.533401 -0.000013 -0.000004 0.020722 0.534972 -4.437441 0.027625 0.617440 -5.123386 0.027077 0.611385 -5.072815 -0.000000 -0.000001 0.000001 9.104507 -0.043012 -1.865104 0.065098 0.946586 -7.869089 0.080968 1.055069 -8.777800 0.079572 1.046030 -8.702069 0.000000 0.000002 0.000001 8.077820 -0.486908 -3.806298 0.884452 5.300912 -10.521965 0.132869 -2.678310 -11.991503 0.138556 1.377217 -11.490954 -0.000001 0.000001 -0.000001 -8.207799 -6.751724 -1.599543 -19.620203 -4.014354 8.733334 42.017524 2.460678 -9.496098 -18.775968 0.272211 0.163656 -1.001950 -0.000003 -0.000000 -0.000000 0.000001 -0.000000 8.207800 -6.751714 -1.599547 -18.921878 7.006131 1.458427 43.408646 7.605374 3.521446 -22.245033 0.863498 -3.334876 -0.157376 0.000000 0.000001 0.000000 -0.000000 0.000000 
-0.506233 96.334930 1.655908 -1.582198 -15.648570 -0.066046 0.000001 10.181554 0.131523 4.188660 2.027293 4.272196 1.915890 0.264854 -4.953524 1.937946 0.212704 -4.946639 0.000001 16.740374 -2.049019 -0.756912 4.393824 -1.662333 -0.000001 9.617844 1.684982 -18.575009 22.192340 -3.310046 -0.000002 22.037415 7.501074 0.000003 -0.000000 0.000001 -4.569998 11.014854 -2.160838 0.181362 -0.184596 -3.090531 -105.167442 54.162492 82.355163 -0.000003 10.555035 0.000019 40.120681 1.600685 -2.563971 -2.464794 -1.573969 2.681904 -4.420170 -18.673975 -15.390335 4.637194 -8.634133 -0.225373 -2.646255 -1.527845 1.527818 -1.273761 0.137309 -2.094879 -1.994586 -1.151599 1.151577 -0.000001 -0.000003 0.000001 -9.108300 -0.517878 2.259799 0.056703 -0.888061 7.307539 0.055357 -0.877428 7.219357 0.055353 -0.877424 7.219375 -0.000001 -0.000000 -0.000000 -9.532497 0.000023 -0.000001 0.067816 -0.970775 7.992438 0.094608 -1.145402 9.442760 0.100116 -1.178070 9.714701 0.000000 -0.000001 0.000000 -9.103598 -0.043092 -1.865105 0.118281 -1.279653 10.561895 0.166098 -1.513704 12.523224 0.175955 -1.557384 12.891027 0.000001 0.000001 0.000001 -8.076696 -0.486717 -3.806308 0.254909 -1.869031 15.531580 0.255033 -1.869483 15.535494 0.255037 -1.869504 15.535492 0.000000 -0.000001 0.000003 4.570402 11.014656 -2.160815 0.513769 -3.024974 10.065622 -42.031242 -1.020476 -20.725142 -0.000024 -64.486739 0.000008 13.624030 -5.592922 10.175408 2.466087 -1.576229 2.681697 -3.383774 21.303416 12.272321 3.939048 7.948720 0.746803 2.647899 -1.528729 1.528745 -0.579471 1.575018 2.538710 1.998935 -1.154094 1.154090 -0.000000 -0.000003 0.000005 9.109291 -0.518007 2.259897 0.002190 0.173841 -1.440663 0.005275 0.270084 -2.238457 0.005274 0.270073 -2.238455 0.000001 0.000000 0.000000 9.533401 -0.000011 -0.000001 0.019441 0.518237 -4.298335 0.028003 0.621744 -5.159117 0.027595 0.617204 -5.121200 -0.000000 -0.000000 0.000004 9.104494 -0.043005 -1.865101 0.066776 0.958674 -7.970182 0.080823 1.054136 -8.770033 0.079283 1.044141 -8.686202 0.000001 -0.000000 0.000001 8.077798 -0.486897 -3.806299 0.912784 5.332830 -10.827697 0.131317 -2.685645 -11.929480 0.137062 1.369866 -11.428841 0.000001 -0.000000 0.000000 -8.207798 -6.751711 -1.599544 -22.326582 -1.801903 7.813199 44.391776 2.737261 -10.322969 -19.649776 0.417880 0.545045 -0.430010 0.000002 -0.000001 0.000000 0.000001 0.000000 8.207800 -6.751696 -1.599546 -20.040960 8.728600 0.686567 44.133923 9.155991 1.727120 -22.803961 0.786241 -2.943778 -0.027486 -0.000002 0.000000 -0.000000 -0.000000 0.000000 
